<svg width="720" height="520" viewBox="0 0 720 520" fill="none" xmlns="http://www.w3.org/2000/svg">
  <defs>
    <linearGradient id="bg" x1="92" y1="52" x2="604" y2="452" gradientUnits="userSpaceOnUse">
      <stop stop-color="#7BE0FF"/>
      <stop offset="0.45" stop-color="#2878FF"/>
      <stop offset="1" stop-color="#12235E"/>
    </linearGradient>
    <linearGradient id="island" x1="168" y1="150" x2="558" y2="396" gradientUnits="userSpaceOnUse">
      <stop stop-color="#0B1538"/>
      <stop offset="1" stop-color="#1D458E"/>
    </linearGradient>
  </defs>
  <rect width="720" height="520" rx="34" fill="url(#bg)"/>
  <circle cx="112" cy="102" r="74" fill="#F9D24E" fill-opacity="0.2"/>
  <circle cx="608" cy="396" r="94" fill="#F9D24E" fill-opacity="0.16"/>
  <path d="M149 258C149 179.611 212.611 116 291 116H436C514.389 116 578 179.611 578 258C578 336.389 514.389 400 436 400H291C212.611 400 149 336.389 149 258Z" fill="url(#island)" stroke="#90E7FF" stroke-width="8"/>
  <path d="M221 214L281 182L350 196L410 173L497 207L476 284L413 329L314 336L251 309L221 214Z" fill="#58BFFF" fill-opacity="0.18" stroke="#AEEEFF" stroke-width="5"/>
  <path d="M311 92L363 132L311 174L259 132L311 92Z" fill="#F9D24E"/>
  <path d="M363 132L448 156" stroke="#F9D24E" stroke-width="8" stroke-linecap="round"/>
  <path d="M311 174L273 264" stroke="#F9D24E" stroke-width="8" stroke-linecap="round" stroke-dasharray="10 16"/>
  <circle cx="448" cy="156" r="16" fill="#F9D24E"/>
  <circle cx="273" cy="264" r="16" fill="#F9D24E"/>
  <circle cx="402" cy="302" r="16" fill="#F9D24E"/>
  <path d="M273 264L402 302" stroke="#F9D24E" stroke-width="8" stroke-linecap="round" stroke-dasharray="10 16"/>
  <rect x="82" y="404" width="184" height="54" rx="18" fill="#07173A" fill-opacity="0.62" stroke="#9DEBFF" stroke-width="3"/>
  <text x="110" y="438" fill="#F5FBFF" font-family="Arial, sans-serif" font-size="24" font-weight="700">Drop Route Intel</text>
</svg>
